<svg width="169" height="61" viewBox="0 0 169 61" fill="none" xmlns="http://www.w3.org/2000/svg">
<path d="M1.377 27C1.377 26.001 1.377 25.029 1.377 24.084C1.377 23.13 1.377 22.041 1.377 20.817V14.202C1.377 12.915 1.377 11.7765 1.377 10.7865C1.377 9.7965 1.377 8.784 1.377 7.749H8.154C8.154 8.784 8.154 9.7965 8.154 10.7865C8.154 11.7765 8.154 12.915 8.154 14.202V20.817C8.154 22.041 8.154 23.13 8.154 24.084C8.154 25.029 8.154 26.001 8.154 27H1.377ZM10.4636 27C10.4636 26.064 10.4636 25.155 10.4636 24.273C10.4636 23.391 10.4636 22.383 10.4636 21.249V19.899C10.4636 18.828 10.4636 17.766 10.4636 16.713C10.4636 15.651 10.4636 14.562 10.4636 13.446L15.4316 13.176L15.7016 15.363H16.1606C16.4846 14.886 16.8491 14.472 17.2541 14.121C17.6681 13.77 18.1316 13.5 18.6446 13.311C19.1576 13.113 19.7336 13.014 20.3726 13.014C21.6416 13.014 22.6406 13.4055 23.3696 14.1885C24.1076 14.9625 24.4766 16.155 24.4766 17.766C24.4766 18.369 24.4766 18.9585 24.4766 19.5345C24.4766 20.1105 24.4766 20.682 24.4766 21.249C24.4766 22.383 24.4766 23.391 24.4766 24.273C24.4766 25.155 24.4766 26.064 24.4766 27H18.4826C18.4826 26.064 18.4826 25.1685 18.4826 24.3135C18.4826 23.4585 18.4826 22.554 18.4826 21.6V19.845C18.4826 19.368 18.4196 19.0125 18.2936 18.7785C18.1676 18.5355 17.9426 18.414 17.6186 18.414C17.4656 18.414 17.3171 18.4455 17.1731 18.5085C17.0381 18.5715 16.9076 18.6615 16.7816 18.7785C16.6646 18.8865 16.5566 19.008 16.4576 19.143V21.6C16.4576 22.554 16.4576 23.4585 16.4576 24.3135C16.4576 25.1685 16.4576 26.064 16.4576 27H10.4636ZM32.7381 27.432C31.6311 27.432 30.6726 27.288 29.8626 27C29.0616 26.703 28.4451 26.208 28.0131 25.515C27.5811 24.822 27.3651 23.877 27.3651 22.68C27.3651 22.302 27.3651 21.888 27.3651 21.438C27.3651 20.988 27.3651 20.466 27.3651 19.872C27.3651 19.269 27.3651 18.5625 27.3651 17.7525C27.3651 16.9335 27.3651 15.966 27.3651 14.85C27.3651 13.716 27.3651 12.699 27.3651 11.799C27.3651 10.89 27.3651 9.972 27.3651 9.045L33.2781 8.073C33.2781 8.811 33.2781 9.5265 33.2781 10.2195C33.2781 10.9125 33.2781 11.6325 33.2781 12.3795C33.2781 13.1265 33.2781 13.95 33.2781 14.85V20.601C33.2781 21.258 33.3681 21.7665 33.5481 22.1265C33.7371 22.4775 34.0791 22.653 34.5741 22.653C34.8081 22.653 35.0691 22.608 35.3571 22.518C35.6451 22.428 35.9511 22.284 36.2751 22.086L36.5451 26.784C36.2661 26.937 35.9151 27.0585 35.4921 27.1485C35.0691 27.2475 34.6146 27.3195 34.1286 27.3645C33.6516 27.4095 33.1881 27.432 32.7381 27.432ZM25.6101 17.847V13.446H36.5451V17.847C35.7621 17.847 34.9791 17.847 34.1961 17.847C33.4221 17.847 32.6751 17.847 31.9551 17.847H29.2011H25.6101ZM45.4969 27.432C43.6069 27.432 42.0769 27.126 40.9069 26.514C39.7369 25.902 38.8819 25.056 38.3419 23.976C37.8019 22.887 37.5319 21.636 37.5319 20.223C37.5319 18.81 37.7749 17.5635 38.2609 16.4835C38.7469 15.3945 39.4939 14.544 40.5019 13.932C41.5189 13.32 42.8239 13.014 44.4169 13.014C45.7489 13.014 46.8829 13.23 47.8189 13.662C48.7549 14.094 49.4704 14.769 49.9654 15.687C50.4604 16.596 50.7079 17.775 50.7079 19.224C50.7079 19.611 50.6944 19.953 50.6674 20.25C50.6494 20.538 50.6179 20.826 50.5729 21.114L45.5239 19.467C45.5419 19.359 45.5554 19.2465 45.5644 19.1295C45.5734 19.0125 45.5779 18.909 45.5779 18.819C45.5779 18.207 45.4744 17.721 45.2674 17.361C45.0604 17.001 44.7949 16.821 44.4709 16.821C44.2459 16.821 44.0299 16.902 43.8229 17.064C43.6249 17.226 43.4629 17.487 43.3369 17.847C43.2109 18.198 43.1479 18.666 43.1479 19.251V20.304C43.1479 20.817 43.2514 21.2445 43.4584 21.5865C43.6744 21.9195 44.0119 22.1715 44.4709 22.3425C44.9299 22.5135 45.5329 22.599 46.2799 22.599C46.5679 22.599 46.9459 22.5675 47.4139 22.5045C47.8909 22.4325 48.3859 22.3335 48.8989 22.2075C49.4209 22.0725 49.8979 21.906 50.3299 21.708L50.5189 26.622C50.1589 26.757 49.7359 26.8875 49.2499 27.0135C48.7639 27.1395 48.2059 27.2385 47.5759 27.3105C46.9549 27.3915 46.2619 27.432 45.4969 27.432ZM39.7729 21.114V18.9L47.1439 18.63L50.5729 18.954V21.114H39.7729ZM52.2028 27C52.2028 26.064 52.2028 25.155 52.2028 24.273C52.2028 23.391 52.2028 22.383 52.2028 21.249V19.899C52.2028 18.828 52.2028 17.766 52.2028 16.713C52.2028 15.651 52.2028 14.562 52.2028 13.446L57.1708 13.176L57.4408 15.363H57.8998C58.2328 14.733 58.5793 14.2515 58.9393 13.9185C59.3083 13.5765 59.6818 13.3425 60.0598 13.2165C60.4468 13.0815 60.8338 13.014 61.2208 13.014C61.3738 13.014 61.5808 13.032 61.8418 13.068C62.1028 13.104 62.3458 13.176 62.5708 13.284L62.0578 19.035C61.6528 19.035 61.2883 19.035 60.9643 19.035C60.6493 19.035 60.3298 19.035 60.0058 19.035C59.7628 19.035 59.5423 19.053 59.3443 19.089C59.1553 19.125 58.9888 19.179 58.8448 19.251C58.7008 19.323 58.5748 19.404 58.4668 19.494C58.3588 19.584 58.2688 19.683 58.1968 19.791V21.6C58.1968 22.554 58.1968 23.4585 58.1968 24.3135C58.1968 25.1685 58.1968 26.064 58.1968 27H52.2028ZM63.7253 27C63.7253 26.064 63.7253 25.155 63.7253 24.273C63.7253 23.391 63.7253 22.383 63.7253 21.249V19.899C63.7253 18.828 63.7253 17.766 63.7253 16.713C63.7253 15.651 63.7253 14.562 63.7253 13.446L68.6933 13.176L68.9633 15.363H69.4223C69.7463 14.886 70.1108 14.472 70.5158 14.121C70.9298 13.77 71.3933 13.5 71.9063 13.311C72.4193 13.113 72.9953 13.014 73.6343 13.014C74.9033 13.014 75.9023 13.4055 76.6313 14.1885C77.3693 14.9625 77.7383 16.155 77.7383 17.766C77.7383 18.369 77.7383 18.9585 77.7383 19.5345C77.7383 20.1105 77.7383 20.682 77.7383 21.249C77.7383 22.383 77.7383 23.391 77.7383 24.273C77.7383 25.155 77.7383 26.064 77.7383 27H71.7443C71.7443 26.064 71.7443 25.1685 71.7443 24.3135C71.7443 23.4585 71.7443 22.554 71.7443 21.6V19.845C71.7443 19.368 71.6813 19.0125 71.5553 18.7785C71.4293 18.5355 71.2043 18.414 70.8803 18.414C70.7273 18.414 70.5788 18.4455 70.4348 18.5085C70.2998 18.5715 70.1693 18.6615 70.0433 18.7785C69.9263 18.8865 69.8183 19.008 69.7193 19.143V21.6C69.7193 22.554 69.7193 23.4585 69.7193 24.3135C69.7193 25.1685 69.7193 26.064 69.7193 27H63.7253ZM82.5709 27.378C81.7609 27.378 81.0949 27.2025 80.5729 26.8515C80.0509 26.5005 79.6639 26.037 79.4119 25.461C79.1599 24.885 79.0339 24.264 79.0339 23.598C79.0339 22.797 79.1779 22.14 79.4659 21.627C79.7629 21.105 80.1319 20.6865 80.5729 20.3715C81.0139 20.0565 81.4684 19.8225 81.9364 19.6695C82.4044 19.5075 82.8139 19.395 83.1649 19.332L86.6209 18.684C86.6299 18.531 86.5624 18.3915 86.4184 18.2655C86.2744 18.1395 86.0404 18.0405 85.7164 17.9685C85.3924 17.8875 84.9649 17.847 84.4339 17.847C84.1279 17.847 83.7904 17.8695 83.4214 17.9145C83.0524 17.9595 82.6654 18.0315 82.2604 18.1305C81.8644 18.2205 81.4639 18.3375 81.0589 18.4815C80.6629 18.6165 80.2759 18.783 79.8979 18.981L79.6549 14.067C79.9969 13.959 80.3929 13.8465 80.8429 13.7295C81.3019 13.6035 81.8059 13.4865 82.3549 13.3785C82.9129 13.2705 83.5114 13.185 84.1504 13.122C84.7984 13.05 85.4779 13.014 86.1889 13.014C87.3859 13.014 88.4119 13.185 89.2669 13.527C90.1219 13.869 90.7744 14.409 91.2244 15.147C91.6834 15.876 91.9129 16.83 91.9129 18.009C91.9129 18.477 91.9129 19.0305 91.9129 19.6695C91.9129 20.3085 91.9129 20.844 91.9129 21.276V21.87C91.9129 22.626 91.9129 23.436 91.9129 24.3C91.9129 25.164 91.9129 26.064 91.9129 27H87.0799L86.6749 25.029H86.2969C86.0719 25.461 85.7839 25.857 85.4329 26.217C85.0909 26.568 84.6814 26.847 84.2044 27.054C83.7274 27.27 83.1829 27.378 82.5709 27.378ZM85.3789 22.869C85.5049 22.869 85.6309 22.8375 85.7569 22.7745C85.8919 22.7115 86.0179 22.6305 86.1349 22.5315C86.2519 22.4235 86.3599 22.302 86.4589 22.167V20.25C86.3869 20.331 86.3104 20.4075 86.2294 20.4795C86.1484 20.5425 86.0449 20.61 85.9189 20.682C85.7929 20.745 85.6309 20.817 85.4329 20.898C85.2979 20.952 85.1629 21.024 85.0279 21.114C84.9019 21.195 84.7939 21.3075 84.7039 21.4515C84.6139 21.5865 84.5689 21.762 84.5689 21.978C84.5689 22.284 84.6544 22.509 84.8254 22.653C85.0054 22.797 85.1899 22.869 85.3789 22.869ZM100.185 27.432C99.0784 27.432 98.1199 27.288 97.3099 27C96.5089 26.703 95.8924 26.208 95.4604 25.515C95.0284 24.822 94.8124 23.877 94.8124 22.68C94.8124 22.302 94.8124 21.888 94.8124 21.438C94.8124 20.988 94.8124 20.466 94.8124 19.872C94.8124 19.269 94.8124 18.5625 94.8124 17.7525C94.8124 16.9335 94.8124 15.966 94.8124 14.85C94.8124 13.716 94.8124 12.699 94.8124 11.799C94.8124 10.89 94.8124 9.972 94.8124 9.045L100.725 8.073C100.725 8.811 100.725 9.5265 100.725 10.2195C100.725 10.9125 100.725 11.6325 100.725 12.3795C100.725 13.1265 100.725 13.95 100.725 14.85V20.601C100.725 21.258 100.815 21.7665 100.995 22.1265C101.184 22.4775 101.526 22.653 102.021 22.653C102.255 22.653 102.516 22.608 102.804 22.518C103.092 22.428 103.398 22.284 103.722 22.086L103.992 26.784C103.713 26.937 103.362 27.0585 102.939 27.1485C102.516 27.2475 102.062 27.3195 101.576 27.3645C101.099 27.4095 100.635 27.432 100.185 27.432ZM93.0574 17.847V13.446H103.992V17.847C103.209 17.847 102.426 17.847 101.643 17.847C100.869 17.847 100.122 17.847 99.4024 17.847H96.6484H93.0574ZM105.573 27C105.573 26.064 105.573 25.155 105.573 24.273C105.573 23.391 105.573 22.383 105.573 21.249V19.899C105.573 18.909 105.573 18.0495 105.573 17.3205C105.573 16.5825 105.573 15.9075 105.573 15.2955C105.573 14.6835 105.573 14.067 105.573 13.446L111.567 13.284C111.567 13.914 111.567 14.544 111.567 15.174C111.567 15.804 111.567 16.497 111.567 17.253C111.567 18 111.567 18.882 111.567 19.899V21.249C111.567 22.383 111.567 23.391 111.567 24.273C111.567 25.155 111.567 26.064 111.567 27H105.573ZM108.557 12.474C107.522 12.474 106.703 12.249 106.1 11.799C105.506 11.34 105.209 10.584 105.209 9.531C105.209 8.622 105.506 7.92 106.1 7.425C106.703 6.921 107.531 6.669 108.584 6.669C109.628 6.669 110.447 6.93 111.041 7.452C111.635 7.974 111.932 8.667 111.932 9.531C111.932 10.584 111.63 11.34 111.027 11.799C110.433 12.249 109.61 12.474 108.557 12.474ZM120.795 27.432C119.436 27.432 118.27 27.2385 117.298 26.8515C116.326 26.4555 115.53 25.92 114.909 25.245C114.297 24.57 113.847 23.8005 113.559 22.9365C113.271 22.0725 113.127 21.168 113.127 20.223C113.127 18.873 113.397 17.6535 113.937 16.5645C114.477 15.4755 115.3 14.6115 116.407 13.9725C117.523 13.3335 118.941 13.014 120.66 13.014C121.983 13.014 123.126 13.1985 124.089 13.5675C125.052 13.9365 125.844 14.4495 126.465 15.1065C127.086 15.7635 127.545 16.5285 127.842 17.4015C128.148 18.2745 128.301 19.215 128.301 20.223C128.301 21.609 128.017 22.8465 127.45 23.9355C126.892 25.0155 126.055 25.8705 124.939 26.5005C123.823 27.1215 122.442 27.432 120.795 27.432ZM120.768 22.653C121.092 22.653 121.357 22.5405 121.564 22.3155C121.78 22.0905 121.938 21.7935 122.037 21.4245C122.145 21.0555 122.199 20.655 122.199 20.223C122.199 19.674 122.131 19.2195 121.996 18.8595C121.87 18.4995 121.695 18.234 121.47 18.063C121.254 17.883 121.011 17.793 120.741 17.793C120.417 17.793 120.142 17.901 119.917 18.117C119.692 18.324 119.521 18.612 119.404 18.981C119.287 19.341 119.229 19.755 119.229 20.223C119.229 20.655 119.287 21.0555 119.404 21.4245C119.53 21.7935 119.706 22.0905 119.931 22.3155C120.165 22.5405 120.444 22.653 120.768 22.653ZM129.722 27C129.722 26.064 129.722 25.155 129.722 24.273C129.722 23.391 129.722 22.383 129.722 21.249V19.899C129.722 18.828 129.722 17.766 129.722 16.713C129.722 15.651 129.722 14.562 129.722 13.446L134.69 13.176L134.96 15.363H135.419C135.743 14.886 136.108 14.472 136.513 14.121C136.927 13.77 137.39 13.5 137.903 13.311C138.416 13.113 138.992 13.014 139.631 13.014C140.9 13.014 141.899 13.4055 142.628 14.1885C143.366 14.9625 143.735 16.155 143.735 17.766C143.735 18.369 143.735 18.9585 143.735 19.5345C143.735 20.1105 143.735 20.682 143.735 21.249C143.735 22.383 143.735 23.391 143.735 24.273C143.735 25.155 143.735 26.064 143.735 27H137.741C137.741 26.064 137.741 25.1685 137.741 24.3135C137.741 23.4585 137.741 22.554 137.741 21.6V19.845C137.741 19.368 137.678 19.0125 137.552 18.7785C137.426 18.5355 137.201 18.414 136.877 18.414C136.724 18.414 136.576 18.4455 136.432 18.5085C136.297 18.5715 136.166 18.6615 136.04 18.7785C135.923 18.8865 135.815 19.008 135.716 19.143V21.6C135.716 22.554 135.716 23.4585 135.716 24.3135C135.716 25.1685 135.716 26.064 135.716 27H129.722ZM148.568 27.378C147.758 27.378 147.092 27.2025 146.57 26.8515C146.048 26.5005 145.661 26.037 145.409 25.461C145.157 24.885 145.031 24.264 145.031 23.598C145.031 22.797 145.175 22.14 145.463 21.627C145.76 21.105 146.129 20.6865 146.57 20.3715C147.011 20.0565 147.465 19.8225 147.933 19.6695C148.401 19.5075 148.811 19.395 149.162 19.332L152.618 18.684C152.627 18.531 152.559 18.3915 152.415 18.2655C152.271 18.1395 152.037 18.0405 151.713 17.9685C151.389 17.8875 150.962 17.847 150.431 17.847C150.125 17.847 149.787 17.8695 149.418 17.9145C149.049 17.9595 148.662 18.0315 148.257 18.1305C147.861 18.2205 147.461 18.3375 147.056 18.4815C146.66 18.6165 146.273 18.783 145.895 18.981L145.652 14.067C145.994 13.959 146.39 13.8465 146.84 13.7295C147.299 13.6035 147.803 13.4865 148.352 13.3785C148.91 13.2705 149.508 13.185 150.147 13.122C150.795 13.05 151.475 13.014 152.186 13.014C153.383 13.014 154.409 13.185 155.264 13.527C156.119 13.869 156.771 14.409 157.221 15.147C157.68 15.876 157.91 16.83 157.91 18.009C157.91 18.477 157.91 19.0305 157.91 19.6695C157.91 20.3085 157.91 20.844 157.91 21.276V21.87C157.91 22.626 157.91 23.436 157.91 24.3C157.91 25.164 157.91 26.064 157.91 27H153.077L152.672 25.029H152.294C152.069 25.461 151.781 25.857 151.43 26.217C151.088 26.568 150.678 26.847 150.201 27.054C149.724 27.27 149.18 27.378 148.568 27.378ZM151.376 22.869C151.502 22.869 151.628 22.8375 151.754 22.7745C151.889 22.7115 152.015 22.6305 152.132 22.5315C152.249 22.4235 152.357 22.302 152.456 22.167V20.25C152.384 20.331 152.307 20.4075 152.226 20.4795C152.145 20.5425 152.042 20.61 151.916 20.682C151.79 20.745 151.628 20.817 151.43 20.898C151.295 20.952 151.16 21.024 151.025 21.114C150.899 21.195 150.791 21.3075 150.701 21.4515C150.611 21.5865 150.566 21.762 150.566 21.978C150.566 22.284 150.651 22.509 150.822 22.653C151.002 22.797 151.187 22.869 151.376 22.869ZM159.675 27C159.675 26.064 159.675 25.155 159.675 24.273C159.675 23.391 159.675 22.383 159.675 21.249V13.689C159.675 12.618 159.675 11.547 159.675 10.476C159.675 9.396 159.675 8.298 159.675 7.182L165.669 6.75C165.669 7.785 165.669 8.8785 165.669 10.0305C165.669 11.1735 165.669 12.393 165.669 13.689V21.249C165.669 22.383 165.669 23.391 165.669 24.273C165.669 25.155 165.669 26.064 165.669 27H159.675ZM5.481 60C5.481 59.001 5.481 58.029 5.481 57.084C5.481 56.13 5.481 55.041 5.481 53.817V48.282C5.481 46.995 5.481 45.8565 5.481 44.8665C5.481 43.8765 5.481 42.864 5.481 41.829L7.938 46.473H5.103C4.158 46.473 3.321 46.473 2.592 46.473C1.872 46.473 1.188 46.473 0.54 46.473V40.749H17.037V46.473C16.389 46.473 15.7005 46.473 14.9715 46.473C14.2515 46.473 13.419 46.473 12.474 46.473H9.639L12.096 41.829C12.096 42.864 12.096 43.8765 12.096 44.8665C12.096 45.8565 12.096 46.995 12.096 48.282V53.817C12.096 55.041 12.096 56.13 12.096 57.084C12.096 58.029 12.096 59.001 12.096 60H5.481ZM17.4509 60C17.4509 59.064 17.4509 58.155 17.4509 57.273C17.4509 56.391 17.4509 55.383 17.4509 54.249V52.899C17.4509 51.828 17.4509 50.766 17.4509 49.713C17.4509 48.651 17.4509 47.562 17.4509 46.446L22.4189 46.176L22.6889 48.363H23.1479C23.4809 47.733 23.8274 47.2515 24.1874 46.9185C24.5564 46.5765 24.9299 46.3425 25.3079 46.2165C25.6949 46.0815 26.0819 46.014 26.4689 46.014C26.6219 46.014 26.8289 46.032 27.0899 46.068C27.3509 46.104 27.5939 46.176 27.8189 46.284L27.3059 52.035C26.9009 52.035 26.5364 52.035 26.2124 52.035C25.8974 52.035 25.5779 52.035 25.2539 52.035C25.0109 52.035 24.7904 52.053 24.5924 52.089C24.4034 52.125 24.2369 52.179 24.0929 52.251C23.9489 52.323 23.8229 52.404 23.7149 52.494C23.6069 52.584 23.5169 52.683 23.4449 52.791V54.6C23.4449 55.554 23.4449 56.4585 23.4449 57.3135C23.4449 58.1685 23.4449 59.064 23.4449 60H17.4509ZM31.7876 60.378C30.9776 60.378 30.3116 60.2025 29.7896 59.8515C29.2676 59.5005 28.8806 59.037 28.6286 58.461C28.3766 57.885 28.2506 57.264 28.2506 56.598C28.2506 55.797 28.3946 55.14 28.6826 54.627C28.9796 54.105 29.3486 53.6865 29.7896 53.3715C30.2306 53.0565 30.6851 52.8225 31.1531 52.6695C31.6211 52.5075 32.0306 52.395 32.3816 52.332L35.8376 51.684C35.8466 51.531 35.7791 51.3915 35.6351 51.2655C35.4911 51.1395 35.2571 51.0405 34.9331 50.9685C34.6091 50.8875 34.1816 50.847 33.6506 50.847C33.3446 50.847 33.0071 50.8695 32.6381 50.9145C32.2691 50.9595 31.8821 51.0315 31.4771 51.1305C31.0811 51.2205 30.6806 51.3375 30.2756 51.4815C29.8796 51.6165 29.4926 51.783 29.1146 51.981L28.8716 47.067C29.2136 46.959 29.6096 46.8465 30.0596 46.7295C30.5186 46.6035 31.0226 46.4865 31.5716 46.3785C32.1296 46.2705 32.7281 46.185 33.3671 46.122C34.0151 46.05 34.6946 46.014 35.4056 46.014C36.6026 46.014 37.6286 46.185 38.4836 46.527C39.3386 46.869 39.9911 47.409 40.4411 48.147C40.9001 48.876 41.1296 49.83 41.1296 51.009C41.1296 51.477 41.1296 52.0305 41.1296 52.6695C41.1296 53.3085 41.1296 53.844 41.1296 54.276V54.87C41.1296 55.626 41.1296 56.436 41.1296 57.3C41.1296 58.164 41.1296 59.064 41.1296 60H36.2966L35.8916 58.029H35.5136C35.2886 58.461 35.0006 58.857 34.6496 59.217C34.3076 59.568 33.8981 59.847 33.4211 60.054C32.9441 60.27 32.3996 60.378 31.7876 60.378ZM34.5956 55.869C34.7216 55.869 34.8476 55.8375 34.9736 55.7745C35.1086 55.7115 35.2346 55.6305 35.3516 55.5315C35.4686 55.4235 35.5766 55.302 35.6756 55.167V53.25C35.6036 53.331 35.5271 53.4075 35.4461 53.4795C35.3651 53.5425 35.2616 53.61 35.1356 53.682C35.0096 53.745 34.8476 53.817 34.6496 53.898C34.5146 53.952 34.3796 54.024 34.2446 54.114C34.1186 54.195 34.0106 54.3075 33.9206 54.4515C33.8306 54.5865 33.7856 54.762 33.7856 54.978C33.7856 55.284 33.8711 55.509 34.0421 55.653C34.2221 55.797 34.4066 55.869 34.5956 55.869ZM49.9692 60.324C48.3582 60.324 46.9902 60.027 45.8652 59.433C44.7492 58.83 43.8987 58.002 43.3137 56.949C42.7287 55.887 42.4362 54.663 42.4362 53.277C42.4362 51.882 42.6972 50.64 43.2192 49.551C43.7412 48.462 44.5377 47.607 45.6087 46.986C46.6797 46.356 48.0432 46.041 49.6992 46.041C50.2482 46.041 50.7972 46.077 51.3462 46.149C51.8952 46.221 52.4127 46.3245 52.8987 46.4595C53.3937 46.5945 53.8302 46.761 54.2082 46.959L53.8032 52.008C53.2812 51.711 52.8177 51.495 52.4127 51.36C52.0077 51.216 51.6522 51.1215 51.3462 51.0765C51.0492 51.0315 50.7972 51.009 50.5902 51.009C49.9692 51.009 49.4697 51.198 49.0917 51.576C48.7227 51.945 48.5382 52.449 48.5382 53.088C48.5382 53.592 48.6552 54.0285 48.8892 54.3975C49.1232 54.7575 49.4562 55.0365 49.8882 55.2345C50.3292 55.4235 50.8512 55.518 51.4542 55.518C51.7422 55.518 52.0257 55.491 52.3047 55.437C52.5837 55.383 52.8582 55.302 53.1282 55.194C53.3982 55.077 53.6592 54.933 53.9112 54.762L54.1272 59.811C53.7942 59.919 53.4252 60.009 53.0202 60.081C52.6242 60.162 52.1742 60.2205 51.6702 60.2565C51.1752 60.3015 50.6082 60.324 49.9692 60.324ZM64.0263 60C63.8553 59.505 63.6798 59.0145 63.4998 58.5285C63.3288 58.0425 63.1578 57.5655 62.9868 57.0975L62.3253 55.248H61.2453V51.414H62.3253L63.0003 49.6455C63.2073 49.1145 63.4098 48.5835 63.6078 48.0525C63.8148 47.5125 64.0173 46.977 64.2153 46.446H71.0193C70.5063 47.292 69.9978 48.129 69.4938 48.957C68.9898 49.776 68.4858 50.604 67.9818 51.441L66.4833 53.898L66.1863 51.333L68.2248 54.87C68.7198 55.725 69.2148 56.5845 69.7098 57.4485C70.2048 58.3035 70.6953 59.154 71.1813 60H64.0263ZM55.6833 60C55.6833 59.064 55.6833 58.155 55.6833 57.273C55.6833 56.391 55.6833 55.383 55.6833 54.249V46.689C55.6833 45.618 55.6833 44.547 55.6833 43.476C55.6833 42.396 55.6833 41.298 55.6833 40.182L61.6773 39.75C61.6773 40.785 61.6773 41.8785 61.6773 43.0305C61.6773 44.1735 61.6773 45.393 61.6773 46.689V55.518C61.6773 56.31 61.6773 57.0615 61.6773 57.7725C61.6773 58.4835 61.6773 59.226 61.6773 60H55.6833ZM78.8514 60.432C76.9614 60.432 75.4314 60.126 74.2614 59.514C73.0914 58.902 72.2364 58.056 71.6964 56.976C71.1564 55.887 70.8864 54.636 70.8864 53.223C70.8864 51.81 71.1294 50.5635 71.6154 49.4835C72.1014 48.3945 72.8484 47.544 73.8564 46.932C74.8734 46.32 76.1784 46.014 77.7714 46.014C79.1034 46.014 80.2374 46.23 81.1734 46.662C82.1094 47.094 82.8249 47.769 83.3199 48.687C83.8149 49.596 84.0624 50.775 84.0624 52.224C84.0624 52.611 84.0489 52.953 84.0219 53.25C84.0039 53.538 83.9724 53.826 83.9274 54.114L78.8784 52.467C78.8964 52.359 78.9099 52.2465 78.9189 52.1295C78.9279 52.0125 78.9324 51.909 78.9324 51.819C78.9324 51.207 78.8289 50.721 78.6219 50.361C78.4149 50.001 78.1494 49.821 77.8254 49.821C77.6004 49.821 77.3844 49.902 77.1774 50.064C76.9794 50.226 76.8174 50.487 76.6914 50.847C76.5654 51.198 76.5024 51.666 76.5024 52.251V53.304C76.5024 53.817 76.6059 54.2445 76.8129 54.5865C77.0289 54.9195 77.3664 55.1715 77.8254 55.3425C78.2844 55.5135 78.8874 55.599 79.6344 55.599C79.9224 55.599 80.3004 55.5675 80.7684 55.5045C81.2454 55.4325 81.7404 55.3335 82.2534 55.2075C82.7754 55.0725 83.2524 54.906 83.6844 54.708L83.8734 59.622C83.5134 59.757 83.0904 59.8875 82.6044 60.0135C82.1184 60.1395 81.5604 60.2385 80.9304 60.3105C80.3094 60.3915 79.6164 60.432 78.8514 60.432ZM73.1274 54.114V51.9L80.4984 51.63L83.9274 51.954V54.114H73.1274ZM85.5573 60C85.5573 59.064 85.5573 58.155 85.5573 57.273C85.5573 56.391 85.5573 55.383 85.5573 54.249V52.899C85.5573 51.828 85.5573 50.766 85.5573 49.713C85.5573 48.651 85.5573 47.562 85.5573 46.446L90.5253 46.176L90.7953 48.363H91.2543C91.5873 47.733 91.9338 47.2515 92.2938 46.9185C92.6628 46.5765 93.0363 46.3425 93.4143 46.2165C93.8013 46.0815 94.1883 46.014 94.5753 46.014C94.7283 46.014 94.9353 46.032 95.1963 46.068C95.4573 46.104 95.7003 46.176 95.9253 46.284L95.4123 52.035C95.0073 52.035 94.6428 52.035 94.3188 52.035C94.0038 52.035 93.6843 52.035 93.3603 52.035C93.1173 52.035 92.8968 52.053 92.6988 52.089C92.5098 52.125 92.3433 52.179 92.1993 52.251C92.0553 52.323 91.9293 52.404 91.8213 52.494C91.7133 52.584 91.6233 52.683 91.5513 52.791V54.6C91.5513 55.554 91.5513 56.4585 91.5513 57.3135C91.5513 58.1685 91.5513 59.064 91.5513 60H85.5573Z" fill="white"/>
<rect x="106" y="47.6628" width="17.027" height="12.3372" fill="#537A5A"/>
<rect x="128.135" y="38.8506" width="18.7297" height="21.1494" fill="#537A5A"/>
<rect x="151.973" y="52.9502" width="17.027" height="7.04981" fill="#537A5A"/>
</svg>
