<svg width="40" height="40" viewBox="0 0 40 40" fill="none" xmlns="http://www.w3.org/2000/svg">
<circle cx="20" cy="20" r="19.5" stroke="#909590"/>
<g clip-path="url(#clip0_51_36)">
<path d="M20 20C18.7876 20 17.6248 19.5259 16.7675 18.682C15.9102 17.8381 15.4286 16.6935 15.4286 15.5C15.4286 14.3065 15.9102 13.1619 16.7675 12.318C17.6248 11.4741 18.7876 11 20 11C21.2124 11 22.3752 11.4741 23.2325 12.318C24.0898 13.1619 24.5714 14.3065 24.5714 15.5C24.5714 16.6935 24.0898 17.8381 23.2325 18.682C22.3752 19.5259 21.2124 20 20 20ZM21.6321 21.6875C25.15 21.6875 28 24.493 28 27.9559C28 28.5324 27.525 29 26.9393 29H13.0607C12.475 29 12 28.5324 12 27.9559C12 24.493 14.85 21.6875 18.3679 21.6875H21.6321Z" fill="#909590"/>
</g>
<defs>
<clipPath id="clip0_51_36">
<rect width="16" height="18" fill="white" transform="matrix(-1 0 0 1 28 11)"/>
</clipPath>
</defs>
</svg>
