<svg width="40" height="40" viewBox="0 0 40 40" fill="none" xmlns="http://www.w3.org/2000/svg">
<circle cx="20" cy="20" r="19.5" stroke="#909590"/>
<path d="M21.624 26C21.624 25.4827 21.624 24.992 21.624 24.528C21.624 24.0587 21.624 23.5147 21.624 22.896L21.68 22.608V19.192C21.68 18.6267 21.68 18.0667 21.68 17.512C21.68 16.952 21.68 16.3893 21.68 15.824L22.976 15.456C22.6827 15.8773 22.3947 16.288 22.112 16.688C21.8293 17.088 21.5467 17.4907 21.264 17.896L19.4 20.528C19.1547 20.88 18.9093 21.232 18.664 21.584C18.424 21.9307 18.176 22.28 17.92 22.632L17.864 22.016H22.072H22.312C22.6053 22.016 22.928 22.016 23.28 22.016C23.6373 22.016 23.9893 22.016 24.336 22.016C24.6827 22.016 24.9893 22.016 25.256 22.016V23.544C24.9893 23.544 24.6827 23.544 24.336 23.544C23.9893 23.544 23.6373 23.544 23.28 23.544C22.928 23.544 22.6053 23.544 22.312 23.544H16.448V22.352C16.6667 22.0373 16.9093 21.6907 17.176 21.312C17.448 20.9333 17.72 20.552 17.992 20.168C18.264 19.7787 18.5173 19.4213 18.752 19.096L20.136 17.136C20.3867 16.784 20.6373 16.432 20.888 16.08C21.1387 15.7227 21.3867 15.368 21.632 15.016H23.376C23.376 15.6773 23.376 16.328 23.376 16.968C23.376 17.6027 23.376 18.2373 23.376 18.872V22.896C23.376 23.5147 23.376 24.0587 23.376 24.528C23.376 24.992 23.376 25.4827 23.376 26H21.624Z" fill="#909590"/>
</svg>
