<svg width="40" height="40" viewBox="0 0 40 40" fill="none" xmlns="http://www.w3.org/2000/svg">
<circle cx="20" cy="20" r="19.5" stroke="#909590"/>
<path d="M16.864 18.464L16.448 17.064C17.1307 16.712 17.8133 16.3627 18.496 16.016C19.1787 15.664 19.8613 15.312 20.544 14.96L20.488 16.576C19.8853 16.8907 19.2827 17.2053 18.68 17.52C18.0773 17.8293 17.472 18.144 16.864 18.464ZM19.648 26C19.648 25.4187 19.648 24.856 19.648 24.312C19.648 23.768 19.648 23.168 19.648 22.512V19.152C19.648 18.5867 19.648 18.024 19.648 17.464C19.648 16.8987 19.648 16.3333 19.648 15.768L20.544 14.96L21.408 15.016C21.408 15.6293 21.408 16.2533 21.408 16.888C21.408 17.5227 21.408 18.1707 21.408 18.832V22.512C21.408 23.168 21.408 23.768 21.408 24.312C21.408 24.856 21.408 25.4187 21.408 26H19.648Z" fill="#909590"/>
</svg>
