<svg width="40" height="40" viewBox="0 0 40 40" fill="none" xmlns="http://www.w3.org/2000/svg">
<circle cx="20" cy="20" r="19.5" stroke="#909590"/>
<path d="M20.44 26.184C20.0827 26.184 19.728 26.16 19.376 26.112C19.0293 26.0693 18.6933 26.0107 18.368 25.936C18.0427 25.856 17.736 25.7627 17.448 25.656C17.1653 25.5493 16.9067 25.4347 16.672 25.312L16.824 23.68C17.112 23.8347 17.4027 23.9733 17.696 24.096C17.9947 24.2187 18.2907 24.3227 18.584 24.408C18.8773 24.4933 19.1653 24.5573 19.448 24.6C19.736 24.6427 20.0107 24.664 20.272 24.664C21.1093 24.664 21.712 24.5013 22.08 24.176C22.4533 23.8453 22.64 23.424 22.64 22.912C22.64 22.304 22.392 21.8427 21.896 21.528C21.4 21.208 20.704 21.048 19.808 21.048C19.6107 21.048 19.4187 21.048 19.232 21.048C19.0453 21.048 18.856 21.048 18.664 21.048V19.616C18.8347 19.616 19.008 19.616 19.184 19.616C19.36 19.616 19.536 19.616 19.712 19.616C20.32 19.616 20.8133 19.5413 21.192 19.392C21.5707 19.2373 21.848 19.0293 22.024 18.768C22.2053 18.5013 22.296 18.1973 22.296 17.856C22.296 17.3387 22.104 16.9547 21.72 16.704C21.3413 16.4533 20.8533 16.328 20.256 16.328C20.0053 16.328 19.7467 16.3547 19.48 16.408C19.2133 16.456 18.944 16.528 18.672 16.624C18.4 16.7147 18.128 16.8267 17.856 16.96C17.5893 17.0933 17.328 17.248 17.072 17.424L16.888 15.76C17.1227 15.6267 17.3813 15.5013 17.664 15.384C17.9467 15.2667 18.2453 15.1653 18.56 15.08C18.8747 14.9947 19.1973 14.9253 19.528 14.872C19.8587 14.8187 20.1893 14.792 20.52 14.792C21.2507 14.792 21.8853 14.904 22.424 15.128C22.9627 15.352 23.376 15.6693 23.664 16.08C23.9573 16.4907 24.104 16.976 24.104 17.536C24.104 17.9947 24.008 18.3973 23.816 18.744C23.6293 19.0907 23.3787 19.3787 23.064 19.608C22.7493 19.832 22.4027 19.9867 22.024 20.072V20.224C22.312 20.2773 22.5973 20.3707 22.88 20.504C23.168 20.6373 23.4293 20.8213 23.664 21.056C23.904 21.2853 24.0933 21.5627 24.232 21.888C24.376 22.2133 24.448 22.5973 24.448 23.04C24.448 23.6373 24.3013 24.1733 24.008 24.648C23.72 25.1227 23.28 25.4987 22.688 25.776C22.096 26.048 21.3467 26.184 20.44 26.184Z" fill="#909590"/>
</svg>
