<svg width="40" height="40" viewBox="0 0 40 40" fill="none" xmlns="http://www.w3.org/2000/svg">
<circle cx="20" cy="20" r="19.5" stroke="#909590"/>
<path d="M16.744 26V24.776C17.0587 24.504 17.3733 24.232 17.688 23.96C18.0027 23.688 18.3173 23.4187 18.632 23.152C19.368 22.5173 20 21.9227 20.528 21.368C21.056 20.8133 21.4587 20.28 21.736 19.768C22.0187 19.2507 22.16 18.7333 22.16 18.216C22.16 17.5867 21.9867 17.1147 21.64 16.8C21.2987 16.48 20.7787 16.32 20.08 16.32C19.8293 16.32 19.568 16.3467 19.296 16.4C19.0293 16.4533 18.7573 16.528 18.48 16.624C18.208 16.72 17.936 16.8373 17.664 16.976C17.392 17.1147 17.1253 17.272 16.864 17.448L16.688 15.736C16.9333 15.608 17.2 15.488 17.488 15.376C17.776 15.264 18.08 15.1653 18.4 15.08C18.72 14.9947 19.048 14.928 19.384 14.88C19.7253 14.8267 20.064 14.8 20.4 14.8C21.168 14.8 21.816 14.9307 22.344 15.192C22.8773 15.448 23.2827 15.816 23.56 16.296C23.8373 16.7707 23.976 17.3387 23.976 18C23.976 18.592 23.8453 19.1813 23.584 19.768C23.3227 20.3493 22.9307 20.9413 22.408 21.544C21.8853 22.1413 21.2373 22.7627 20.464 23.408L18.752 24.824L18.512 24.472H20.656C21.2373 24.472 21.8213 24.472 22.408 24.472C22.9947 24.472 23.5787 24.472 24.16 24.472V26H16.744Z" fill="#909590"/>
</svg>
